<?xml version="1.0" encoding="UTF-8"?><svg id="Capa_2" xmlns="http://www.w3.org/2000/svg" xmlns:xlink="http://www.w3.org/1999/xlink" viewBox="0 0 543.38 182.7"><defs><style>.cls-1{fill:url(#Degradado_sin_nombre_31-10);}.cls-2{fill:url(#Degradado_sin_nombre_142);}.cls-3{fill:url(#Degradado_sin_nombre_31-2);}.cls-4{fill:url(#Degradado_sin_nombre_31-4);}.cls-5{fill:url(#Degradado_sin_nombre_166);}.cls-6{fill:url(#Degradado_sin_nombre_31-9);}.cls-7{fill:#0f0775;}.cls-8{fill:url(#Degradado_sin_nombre_31);}.cls-9{fill:url(#Degradado_sin_nombre_169);}.cls-10{fill:url(#Degradado_sin_nombre_31-6);}.cls-11{fill:url(#Degradado_sin_nombre_158);}.cls-12{fill:url(#Degradado_sin_nombre_31-3);}.cls-13{fill:url(#Degradado_sin_nombre_130);}.cls-14{fill:url(#Degradado_sin_nombre_31-8);}.cls-15{fill:url(#Degradado_sin_nombre_110);}.cls-15,.cls-16{opacity:.42;}.cls-16{fill:url(#Degradado_sin_nombre_86);}.cls-17{fill:url(#Degradado_sin_nombre_31-11);}.cls-18{fill:url(#Degradado_sin_nombre_31-5);}.cls-19{fill:url(#Degradado_sin_nombre_106);}.cls-20{fill:#d3e9f4;}.cls-21{fill:url(#Degradado_sin_nombre_144);}.cls-22{fill:url(#Degradado_sin_nombre_31-7);}.cls-23{fill:url(#Degradado_sin_nombre_108);}.cls-24{fill:#1d70af;}</style><linearGradient id="Degradado_sin_nombre_110" x1="57.17" y1="13.43" x2="94.19" y2="77.55" gradientTransform="matrix(1, 0, 0, 1, 0, 0)" gradientUnits="userSpaceOnUse"><stop offset="0" stop-color="#5eeaf6" stop-opacity="0"/><stop offset=".47" stop-color="#5fe2f6" stop-opacity=".02"/><stop offset="1" stop-color="#5fe2f6"/></linearGradient><linearGradient id="Degradado_sin_nombre_144" x1="112.91" y1="13.63" x2="112.91" y2="49.2" gradientTransform="matrix(1, 0, 0, 1, 0, 0)" gradientUnits="userSpaceOnUse"><stop offset="0" stop-color="#fff"/><stop offset="1" stop-color="#fff" stop-opacity=".7"/></linearGradient><linearGradient id="Degradado_sin_nombre_31" x1="198.63" y1="117.08" x2="198.63" y2="69.19" gradientTransform="matrix(1, 0, 0, 1, 0, 0)" gradientUnits="userSpaceOnUse"><stop offset=".22" stop-color="#1d70ad" stop-opacity=".6"/><stop offset=".91" stop-color="#0f0775" stop-opacity="0"/></linearGradient><linearGradient id="Degradado_sin_nombre_31-2" x1="238.03" y1="117.96" x2="238.03" y2="80.63" xlink:href="#Degradado_sin_nombre_31"/><linearGradient id="Degradado_sin_nombre_31-3" x1="273.15" y1="117.96" x2="273.15" y2="79.75" xlink:href="#Degradado_sin_nombre_31"/><linearGradient id="Degradado_sin_nombre_31-4" x1="305.43" y1="117.96" x2="305.43" y2="79.75" xlink:href="#Degradado_sin_nombre_31"/><linearGradient id="Degradado_sin_nombre_31-5" x1="338.18" y1="117.96" x2="338.18" y2="79.75" xlink:href="#Degradado_sin_nombre_31"/><linearGradient id="Degradado_sin_nombre_31-6" x1="369" y1="117.96" x2="369" y2="70.95" xlink:href="#Degradado_sin_nombre_31"/><linearGradient id="Degradado_sin_nombre_31-7" x1="398.19" x2="398.19" y2="79.75" xlink:href="#Degradado_sin_nombre_31"/><linearGradient id="Degradado_sin_nombre_31-8" x1="425.17" y1="117.96" x2="425.17" y2="79.75" xlink:href="#Degradado_sin_nombre_31"/><linearGradient id="Degradado_sin_nombre_31-9" x1="460.63" x2="460.63" y2="80.63" xlink:href="#Degradado_sin_nombre_31"/><linearGradient id="Degradado_sin_nombre_31-10" x1="494.78" y1="117.96" x2="494.78" y2="79.75" xlink:href="#Degradado_sin_nombre_31"/><linearGradient id="Degradado_sin_nombre_31-11" x1="528.9" y1="117.96" x2="528.9" y2="79.75" xlink:href="#Degradado_sin_nombre_31"/><linearGradient id="Degradado_sin_nombre_106" x1="9.84" y1="31.74" x2="140.26" y2="31.74" gradientTransform="matrix(1, 0, 0, 1, 0, 0)" gradientUnits="userSpaceOnUse"><stop offset="0" stop-color="#5eeaf6"/><stop offset=".21" stop-color="#60dff6"/><stop offset="1" stop-color="#803af4"/></linearGradient><linearGradient id="Degradado_sin_nombre_108" x1="9.84" y1="31.74" x2="140.26" y2="31.74" gradientTransform="matrix(1, 0, 0, 1, 0, 0)" gradientUnits="userSpaceOnUse"><stop offset=".72" stop-color="#5eeaf6" stop-opacity="0"/><stop offset=".81" stop-color="#4a96c3" stop-opacity=".34"/><stop offset=".89" stop-color="#3c599e" stop-opacity=".59"/><stop offset=".96" stop-color="#343488" stop-opacity=".75"/><stop offset="1" stop-color="#312780" stop-opacity=".8"/></linearGradient><linearGradient id="Degradado_sin_nombre_130" x1="9.84" y1="31.74" x2="140.26" y2="31.74" gradientTransform="matrix(1, 0, 0, 1, 0, 0)" gradientUnits="userSpaceOnUse"><stop offset=".09" stop-color="#31ffb1" stop-opacity=".8"/><stop offset=".72" stop-color="#5eeaf6" stop-opacity="0"/></linearGradient><linearGradient id="Degradado_sin_nombre_86" x1="-595.69" y1="497.54" x2="-458.9" y2="497.54" gradientTransform="translate(768.1 -22.48) rotate(31.92) scale(.97 .96)" gradientUnits="userSpaceOnUse"><stop offset="0" stop-color="#5eeaf6" stop-opacity="0"/><stop offset=".26" stop-color="#5fe2f6" stop-opacity=".02"/><stop offset="1" stop-color="#5fe2f6"/></linearGradient><linearGradient id="Degradado_sin_nombre_142" x1="70.38" y1="147.84" x2="137.77" y2="147.84" gradientTransform="matrix(1, 0, 0, 1, 0, 0)" gradientUnits="userSpaceOnUse"><stop offset="0" stop-color="#fff"/><stop offset="1" stop-color="#fff" stop-opacity="0"/></linearGradient><linearGradient id="Degradado_sin_nombre_166" x1=".64" y1="97.72" x2="162.38" y2="97.72" gradientTransform="matrix(1, 0, 0, 1, 0, 0)" gradientUnits="userSpaceOnUse"><stop offset="0" stop-color="#24b8f6"/><stop offset="1" stop-color="#803af4"/></linearGradient><linearGradient id="Degradado_sin_nombre_158" x1=".64" y1="97.72" x2="162.38" y2="97.72" gradientTransform="matrix(1, 0, 0, 1, 0, 0)" gradientUnits="userSpaceOnUse"><stop offset="0" stop-color="#5eeaf6" stop-opacity="0"/><stop offset=".69" stop-color="#5fe2f6" stop-opacity=".03"/><stop offset=".94" stop-color="#4b0cd6"/></linearGradient><linearGradient id="Degradado_sin_nombre_169" x1="22.86" y1="155.57" x2="117.78" y2="42.45" gradientTransform="matrix(1, 0, 0, 1, 0, 0)" gradientUnits="userSpaceOnUse"><stop offset=".04" stop-color="#31ffb1" stop-opacity=".7"/><stop offset=".25" stop-color="#5eeaf6" stop-opacity="0"/></linearGradient></defs><g id="Capa_2-2"><g><path class="cls-20" d="M151.14,178.24c2.37,5.94-99.39,5.94-97.02,0-2.37-5.94,99.39-5.94,97.02,0Z"/><path class="cls-15" d="M30.29,68.9l17.38-27.13c.63-5.14,12.06-6.44,15.36-6.3l30.77,9.04s16.23,2.38,25.31,12.84c1.74,2.01,.5-2.96,1.77,.04,.93-1.85,4.48,3.74,5.12,1.51C138.43,15.35,97.17,4.43,71.41,12.53c-45.91,15.79-41.62,7.61-41.12,56.38Z"/><path class="cls-21" d="M122.67,49.2c6.78-15.98-7.09-33.66-21.29-35.57,12.81,3.4,24,24.78,21.29,35.57Z"/><g><path class="cls-7" d="M180.43,69.19h16.39c9.94,0,17.66,2.73,17.66,11.88,0,4.3-2.4,8.87-6.31,10.34v.29c4.89,1.27,8.67,4.87,8.67,11.27,0,9.74-8.24,14.11-18.65,14.11h-17.75v-47.88Zm15.89,19.18c5.25,0,7.58-2.22,7.58-5.7,0-3.69-2.45-5.12-7.5-5.12h-5.14v10.83h5.06Zm.99,20.35c5.9,0,8.95-2.1,8.95-6.45s-3-5.91-8.95-5.91h-6.05v12.36h6.05Z"/><path class="cls-7" d="M221.72,103.25v-22.63h10.8v21.24c0,5.24,1.41,6.89,4.53,6.89,2.71,0,4.37-1.14,6.48-4.01v-24.12h10.8v36.45h-8.81l-.78-5.06h-.27c-3.04,3.63-6.47,5.94-11.44,5.94-7.93,0-11.31-5.59-11.31-14.7Z"/><path class="cls-7" d="M258.67,112.87l4.86-6.73c3.3,2.5,6.35,3.83,9.4,3.83,3.21,0,4.6-1.23,4.6-3.14,0-2.4-3.61-3.49-7.36-4.96-4.47-1.73-9.64-4.69-9.64-10.72,0-6.79,5.51-11.41,13.92-11.41,5.58,0,9.74,2.26,12.85,4.62l-4.83,6.48c-2.59-1.88-5.15-3.11-7.67-3.11-2.79,0-4.16,1.09-4.16,2.91,0,2.32,3.41,3.21,7.19,4.59,4.62,1.71,9.82,4.3,9.82,10.97s-5.2,11.75-14.97,11.75c-4.8,0-10.3-2.08-13.99-5.09Z"/><path class="cls-7" d="M290.41,98.86c0-12.12,8.92-19.12,18.99-19.12,4.49,0,7.93,1.6,10.65,3.92l-5.1,6.94c-1.75-1.48-3.21-2.15-4.94-2.15-5.19,0-8.53,4.1-8.53,10.4s3.47,10.38,8.16,10.38c2.39,0,4.68-1.18,6.58-2.69l4.23,7.06c-3.54,3.13-8.06,4.34-12.01,4.34-10.17,0-18.02-7-18.02-19.09Z"/><path class="cls-7" d="M322.52,106.97c0-7.68,6.11-11.84,20.53-13.36-.22-3.19-1.81-5.27-5.76-5.27-3.06,0-6.11,1.29-9.64,3.29l-3.84-7.09c4.62-2.83,9.84-4.8,15.57-4.8,9.32,0,14.48,5.32,14.48,16.49v20.84h-8.81l-.78-3.73h-.27c-3.07,2.7-6.51,4.61-10.6,4.61-6.65,0-10.86-4.85-10.86-10.99Zm20.53-.48v-6.37c-7.68,1.04-10.18,3.23-10.18,5.99,0,2.35,1.62,3.5,4.18,3.5s4.09-1.21,6-3.12Z"/><path class="cls-7" d="M361.14,103.82v-14.72h-4.98v-8.06l5.58-.42,1.26-9.68h8.93v9.68h8.74v8.47h-8.74v14.59c0,4.13,1.88,5.79,4.72,5.79,1.2,0,2.51-.35,3.47-.69l1.7,7.84c-1.94,.61-4.56,1.32-8.1,1.32-9.01,0-12.59-5.69-12.59-14.13Z"/><path class="cls-7" d="M385.91,80.63h8.81l.78,6.37h.27c2.65-4.87,6.64-7.25,10.35-7.25,2.08,0,3.29,.27,4.35,.73l-1.8,9.32c-1.3-.32-2.37-.59-3.93-.59-2.75,0-6.08,1.77-8.03,6.74v21.12h-10.8v-36.45Z"/><path class="cls-7" d="M409.51,106.97c0-7.68,6.11-11.84,20.53-13.36-.22-3.19-1.81-5.27-5.76-5.27-3.06,0-6.11,1.29-9.64,3.29l-3.84-7.09c4.62-2.83,9.84-4.8,15.57-4.8,9.32,0,14.48,5.32,14.48,16.49v20.84h-8.81l-.78-3.73h-.27c-3.07,2.7-6.51,4.61-10.6,4.61-6.65,0-10.86-4.85-10.86-10.99Zm20.53-.48v-6.37c-7.68,1.04-10.18,3.23-10.18,5.99,0,2.35,1.62,3.5,4.18,3.5s4.09-1.21,6-3.12Z"/><path class="cls-7" d="M446,111.3l15.3-22.2h-13.56v-8.47h27.03v5.78l-15.3,22.2h15.8v8.47h-29.27v-5.78Z"/><path class="cls-7" d="M477.03,98.86c0-12.12,8.53-19.12,17.75-19.12s17.75,7,17.75,19.12-8.53,19.09-17.75,19.09-17.75-7-17.75-19.09Zm24.44,0c0-6.31-2.22-10.4-6.69-10.4s-6.69,4.1-6.69,10.4,2.22,10.38,6.69,10.38,6.69-4.07,6.69-10.38Z"/><path class="cls-7" d="M514.42,112.87l4.86-6.73c3.3,2.5,6.35,3.83,9.4,3.83,3.21,0,4.6-1.23,4.6-3.14,0-2.4-3.61-3.49-7.36-4.96-4.47-1.73-9.64-4.69-9.64-10.72,0-6.79,5.51-11.41,13.92-11.41,5.58,0,9.74,2.26,12.85,4.62l-4.83,6.48c-2.59-1.88-5.15-3.11-7.67-3.11-2.79,0-4.16,1.09-4.16,2.91,0,2.32,3.41,3.21,7.19,4.59,4.62,1.71,9.82,4.3,9.82,10.97s-5.2,11.75-14.97,11.75c-4.8,0-10.3-2.08-13.99-5.09Z"/></g><g><path class="cls-24" d="M181.06,131.34h8.51c6.68,0,11.18,2.25,11.18,8.78s-4.48,9.21-11,9.21h-4.9v11.82h-3.79v-29.8Zm8.22,14.9c5.21,0,7.7-1.89,7.7-6.13s-2.64-5.7-7.88-5.7h-4.24v11.83h4.42Z"/><path class="cls-24" d="M205.17,153.06v-13.99h3.74v13.5c0,4.11,1.24,5.87,4.17,5.87,2.26,0,3.82-1.12,5.91-3.72v-15.66h3.74v22.07h-3.09l-.32-3.46h-.12c-2.05,2.41-4.25,4-7.28,4-4.65,0-6.74-3-6.74-8.63Z"/><path class="cls-24" d="M232.68,158.87h-.12l-.35,2.28h-2.99v-32.35h3.74v8.85l-.12,3.96c2.02-1.74,4.48-3.07,6.93-3.07,5.7,0,8.77,4.43,8.77,11.23,0,7.54-4.52,11.93-9.56,11.93-2.06,0-4.34-1.06-6.3-2.82Zm12-9.06c0-4.87-1.66-8.14-5.82-8.14-1.87,0-3.81,1.03-5.9,3.01v11.57c1.94,1.68,3.92,2.3,5.37,2.3,3.65,0,6.35-3.29,6.35-8.74Z"/><path class="cls-24" d="M253.2,156.71v-27.92h3.73v28.19c0,1.14,.5,1.6,1.04,1.6,.22,0,.4,0,.82-.09l.51,2.85c-.53,.19-1.17,.35-2.15,.35-2.8,0-3.95-1.79-3.95-4.98Z"/><path class="cls-24" d="M263.14,132.12c0-1.47,1.13-2.41,2.58-2.41s2.58,.95,2.58,2.41-1.13,2.41-2.58,2.41-2.58-1-2.58-2.41Zm.68,6.95h3.74v22.07h-3.74v-22.07Z"/><path class="cls-24" d="M272.4,150.14c0-7.37,4.98-11.61,10.62-11.61,2.9,0,4.9,1.2,6.46,2.59l-1.91,2.47c-1.29-1.16-2.64-1.95-4.38-1.95-4,0-6.93,3.44-6.93,8.5s2.77,8.44,6.83,8.44c2.02,0,3.81-.98,5.18-2.2l1.62,2.5c-1.98,1.77-4.49,2.81-7.14,2.81-5.88,0-10.35-4.24-10.35-11.55Z"/><path class="cls-24" d="M293.11,132.12c0-1.47,1.13-2.41,2.58-2.41s2.58,.95,2.58,2.41-1.13,2.41-2.58,2.41-2.58-1-2.58-2.41Zm.68,6.95h3.73v22.07h-3.73v-22.07Z"/><path class="cls-24" d="M302.44,150.14c0-7.16,4.52-11.61,9.55-11.61,2.57,0,4.25,.97,6.19,2.56l-.16-3.79v-8.5h3.74v32.35h-3.09l-.32-2.61h-.12c-1.72,1.72-4.07,3.15-6.7,3.15-5.52,0-9.09-4.2-9.09-11.55Zm15.58,5.4v-11.57c-1.88-1.68-3.58-2.3-5.38-2.3-3.53,0-6.34,3.4-6.34,8.43,0,5.29,2.19,8.44,6.06,8.44,2.04,0,3.81-.99,5.66-3.01Z"/><path class="cls-24" d="M326.9,155.41c0-4.81,4.15-7.21,13.56-8.24,0-2.84-.95-5.58-4.56-5.58-2.55,0-4.85,1.21-6.58,2.37l-1.46-2.56c2.03-1.33,5.13-2.88,8.67-2.88,5.39,0,7.67,3.58,7.67,9.08v13.54h-3.09l-.32-2.64h-.12c-2.1,1.75-4.56,3.18-7.3,3.18-3.69,0-6.47-2.29-6.47-6.28Zm13.56,.34v-6.13c-7.4,.89-9.9,2.7-9.9,5.52,0,2.51,1.7,3.53,3.87,3.53s3.89-1.04,6.03-2.92Z"/><path class="cls-24" d="M348.63,150.14c0-7.16,4.52-11.61,9.55-11.61,2.57,0,4.25,.97,6.19,2.56l-.16-3.79v-8.5h3.74v32.35h-3.09l-.32-2.61h-.12c-1.72,1.72-4.07,3.15-6.7,3.15-5.52,0-9.09-4.2-9.09-11.55Zm15.58,5.4v-11.57c-1.88-1.68-3.58-2.3-5.38-2.3-3.53,0-6.34,3.4-6.34,8.43,0,5.29,2.19,8.44,6.06,8.44,2.04,0,3.81-.99,5.66-3.01Z"/></g><g><path class="cls-8" d="M180.43,69.19h16.39c9.94,0,17.66,2.73,17.66,11.88,0,4.3-2.4,8.87-6.31,10.34v.29c4.89,1.27,8.67,4.87,8.67,11.27,0,9.74-8.24,14.11-18.65,14.11h-17.75v-47.88Zm15.89,19.18c5.25,0,7.58-2.22,7.58-5.7,0-3.69-2.45-5.12-7.5-5.12h-5.14v10.83h5.06Zm.99,20.35c5.9,0,8.95-2.1,8.95-6.45s-3-5.91-8.95-5.91h-6.05v12.36h6.05Z"/><path class="cls-3" d="M221.72,103.25v-22.63h10.8v21.24c0,5.24,1.41,6.89,4.53,6.89,2.71,0,4.37-1.14,6.48-4.01v-24.12h10.8v36.45h-8.81l-.78-5.06h-.27c-3.04,3.63-6.47,5.94-11.44,5.94-7.93,0-11.31-5.59-11.31-14.7Z"/><path class="cls-12" d="M258.67,112.87l4.86-6.73c3.3,2.5,6.35,3.83,9.4,3.83,3.21,0,4.6-1.23,4.6-3.14,0-2.4-3.61-3.49-7.36-4.96-4.47-1.73-9.64-4.69-9.64-10.72,0-6.79,5.51-11.41,13.92-11.41,5.58,0,9.74,2.26,12.85,4.62l-4.83,6.48c-2.59-1.88-5.15-3.11-7.67-3.11-2.79,0-4.16,1.09-4.16,2.91,0,2.32,3.41,3.21,7.19,4.59,4.62,1.71,9.82,4.3,9.82,10.97s-5.2,11.75-14.97,11.75c-4.8,0-10.3-2.08-13.99-5.09Z"/><path class="cls-4" d="M290.41,98.86c0-12.12,8.92-19.12,18.99-19.12,4.49,0,7.93,1.6,10.65,3.92l-5.1,6.94c-1.75-1.48-3.21-2.15-4.94-2.15-5.19,0-8.53,4.1-8.53,10.4s3.47,10.38,8.16,10.38c2.39,0,4.68-1.18,6.58-2.69l4.23,7.06c-3.54,3.13-8.06,4.34-12.01,4.34-10.17,0-18.02-7-18.02-19.09Z"/><path class="cls-18" d="M322.52,106.97c0-7.68,6.11-11.84,20.53-13.36-.22-3.19-1.81-5.27-5.76-5.27-3.06,0-6.11,1.29-9.64,3.29l-3.84-7.09c4.62-2.83,9.84-4.8,15.57-4.8,9.32,0,14.48,5.32,14.48,16.49v20.84h-8.81l-.78-3.73h-.27c-3.07,2.7-6.51,4.61-10.6,4.61-6.65,0-10.86-4.85-10.86-10.99Zm20.53-.48v-6.37c-7.68,1.04-10.18,3.23-10.18,5.99,0,2.35,1.62,3.5,4.18,3.5s4.09-1.21,6-3.12Z"/><path class="cls-10" d="M361.14,103.82v-14.72h-4.98v-8.06l5.58-.42,1.26-9.68h8.93v9.68h8.74v8.47h-8.74v14.59c0,4.13,1.88,5.79,4.72,5.79,1.2,0,2.51-.35,3.47-.69l1.7,7.84c-1.94,.61-4.56,1.32-8.1,1.32-9.01,0-12.59-5.69-12.59-14.13Z"/><path class="cls-22" d="M385.91,80.63h8.81l.78,6.37h.27c2.65-4.87,6.64-7.25,10.35-7.25,2.08,0,3.29,.27,4.35,.73l-1.8,9.32c-1.3-.32-2.37-.59-3.93-.59-2.75,0-6.08,1.77-8.03,6.74v21.12h-10.8v-36.45Z"/><path class="cls-14" d="M409.51,106.97c0-7.68,6.11-11.84,20.53-13.36-.22-3.19-1.81-5.27-5.76-5.27-3.06,0-6.11,1.29-9.64,3.29l-3.84-7.09c4.62-2.83,9.84-4.8,15.57-4.8,9.32,0,14.48,5.32,14.48,16.49v20.84h-8.81l-.78-3.73h-.27c-3.07,2.7-6.51,4.61-10.6,4.61-6.65,0-10.86-4.85-10.86-10.99Zm20.53-.48v-6.37c-7.68,1.04-10.18,3.23-10.18,5.99,0,2.35,1.62,3.5,4.18,3.5s4.09-1.21,6-3.12Z"/><path class="cls-6" d="M446,111.3l15.3-22.2h-13.56v-8.47h27.03v5.78l-15.3,22.2h15.8v8.47h-29.27v-5.78Z"/><path class="cls-1" d="M477.03,98.86c0-12.12,8.53-19.12,17.75-19.12s17.75,7,17.75,19.12-8.53,19.09-17.75,19.09-17.75-7-17.75-19.09Zm24.44,0c0-6.31-2.22-10.4-6.69-10.4s-6.69,4.1-6.69,10.4,2.22,10.38,6.69,10.38,6.69-4.07,6.69-10.38Z"/><path class="cls-17" d="M514.42,112.87l4.86-6.73c3.3,2.5,6.35,3.83,9.4,3.83,3.21,0,4.6-1.23,4.6-3.14,0-2.4-3.61-3.49-7.36-4.96-4.47-1.73-9.64-4.69-9.64-10.72,0-6.79,5.51-11.41,13.92-11.41,5.58,0,9.74,2.26,12.85,4.62l-4.83,6.48c-2.59-1.88-5.15-3.11-7.67-3.11-2.79,0-4.16,1.09-4.16,2.91,0,2.32,3.41,3.21,7.19,4.59,4.62,1.71,9.82,4.3,9.82,10.97s-5.2,11.75-14.97,11.75c-4.8,0-10.3-2.08-13.99-5.09Z"/></g><path class="cls-19" d="M136.2,63.48l-7.55-4.08C155.11-27.07,25.84,20.71,13.82,30.96l-3.98-7.59c22.3-15.79,155.14-59.85,126.36,40.12Z"/><path class="cls-23" d="M136.2,63.48l-7.55-4.08C155.11-27.07,25.84,20.71,13.82,30.96l-3.98-7.59c22.3-15.79,155.14-59.85,126.36,40.12Z"/><path class="cls-13" d="M136.2,63.48l-7.55-4.08C155.11-27.07,25.84,20.71,13.82,30.96l-3.98-7.59c22.3-15.79,155.14-59.85,126.36,40.12Z"/><path class="cls-16" d="M47.44,48.64c-9.27-.13-39.58,62.54-45.34,68.73,0,0-4.47,5.99-.38,13.67,3.59,10.98,81.32,28.14,90.65,33.04,0,0,22.29,5.18,40.31-11.87,37.44-36.47,5.78-87.87-29.14-94.63-10.61-1.84-44.98-13.07-56.1-8.94Z"/><path class="cls-2" d="M70.38,147.79c21.63,19.28,54.42,11.42,67.39-10.83-14.33,18.56-51.49,21.06-67.39,10.83Z"/><path class="cls-5" d="M99.08,178.33c-22.54,1.42-63.15-23.31-81.88-30.09-6.78-1.3-18.27-11.22-16.33-21.97V42.17C-1.25,29.12,12.06,20.05,24.22,17.04c1.57,.33,102.27,37.05,103.88,37.45,55.22,22.01,42.43,124.32-29.02,123.84ZM24.17,26.14c-9.07,2.6-16.24,8.37-14.75,15.64l.02,84.51c-1.24,7.6,5.6,12.43,10.54,13.84l59.53,26.66c26.44,8.28,73.94-1.9,74.29-52.72-.42-42.35-27.01-51-28.51-51.48L24.17,26.14Z"/><path class="cls-11" d="M99.08,178.33c-22.54,1.42-63.15-23.31-81.88-30.09-6.78-1.3-18.27-11.22-16.33-21.97V42.17C-1.25,29.12,12.06,20.05,24.22,17.04c1.57,.33,102.27,37.05,103.88,37.45,55.22,22.01,42.43,124.32-29.02,123.84ZM24.17,26.14c-9.07,2.6-16.24,8.37-14.75,15.64l.02,84.51c-1.24,7.6,5.6,12.43,10.54,13.84l59.53,26.66c26.44,8.28,73.94-1.9,74.29-52.72-.42-42.35-27.01-51-28.51-51.48L24.17,26.14Z"/><path class="cls-9" d="M99.08,178.33c-22.54,1.42-63.15-23.31-81.88-30.09-6.78-1.3-18.27-11.22-16.33-21.97V42.17C-1.25,29.12,12.06,20.05,24.22,17.04c1.57,.33,102.27,37.05,103.88,37.45,55.22,22.01,42.43,124.32-29.02,123.84ZM24.17,26.14c-9.07,2.6-16.24,8.37-14.75,15.64l.02,84.51c-1.24,7.6,5.6,12.43,10.54,13.84l59.53,26.66c26.44,8.28,73.94-1.9,74.29-52.72-.42-42.35-27.01-51-28.51-51.48L24.17,26.14Z"/></g></g></svg>